<?xml version="1.0" encoding="utf-8"?>
<!-- Generator: Adobe Illustrator 25.0.0, SVG Export Plug-In . SVG Version: 6.00 Build 0)  -->
<svg version="1.1" id="Layer_1" xmlns="http://www.w3.org/2000/svg" xmlns:xlink="http://www.w3.org/1999/xlink" x="0px" y="0px"
	 viewBox="0 0 802.2 571.4" style="enable-background:new 0 0 802.2 571.4;" xml:space="preserve">
<style type="text/css">
	.st0{fill:#2563EB;}
	.st1{fill:#FFFFFF;}
</style>
<g>
	<path d="M80.7,569.3V161.9H4.1V8.7h157v110.2h39.2c15-39.2,38.6-68.5,71-87.9c32.4-19.3,68.9-29,109.3-29h47.6v134.6h-54.2
		c-48.6,0-84.3,13.7-107,41.1S233,241.2,233,286.1v283.1L80.7,569.3L80.7,569.3z"/>
	<g>
		<path class="st0" d="M596.3,569.3c111.4,0,201.8-90.3,201.8-201.8s-90.3-201.8-201.8-201.8S394.5,256,394.5,367.5v201.8H596.3z"/>
		<g>
			<polygon class="st1" points="482.6,270 482.6,293 710,293 710,290.8 710,270 			"/>
			<polygon class="st1" points="621.2,356.9 621.2,336.1 482.6,336.1 482.6,359.1 621.2,359.1 			"/>
			<polygon class="st1" points="482.6,425.3 710,425.3 710,423 710,402.3 482.6,402.3 			"/>
			<polygon class="st1" points="482.6,491.4 665.2,491.4 665.2,489.2 665.2,468.4 482.6,468.4 			"/>
		</g>
	</g>
</g>
</svg>
