<?xml version="1.0" encoding="utf-8"?>
<!-- Generator: Adobe Illustrator 25.0.0, SVG Export Plug-In . SVG Version: 6.00 Build 0)  -->
<svg version="1.1" id="Layer_1" xmlns="http://www.w3.org/2000/svg" xmlns:xlink="http://www.w3.org/1999/xlink" x="0px" y="0px"
	 viewBox="0 0 802.2 571.4" style="enable-background:new 0 0 802.2 571.4;" xml:space="preserve">
<style type="text/css">
	.st0{fill:#2563EB;}
	.st1{fill:#FFFFFF;}
</style>
<g>
	<path class="st1" d="M80.7,569.3V161.9H4.1V8.7h157v110.2h39.2c15-39.2,38.6-68.5,71-87.9c32.4-19.3,68.9-29,109.3-29h47.6v134.6
		h-54.2c-48.6,0-84.3,13.7-107,41.1S233,241.2,233,286.1v283.1L80.7,569.3L80.7,569.3z"/>
	<g>
		<path class="st1" d="M596.3,165.7c-111.5,0-201.8,90.3-201.8,201.8v201.8h201.8c111.4,0,201.8-90.3,201.8-201.8
			S707.8,165.7,596.3,165.7z M482.6,336.1h138.6v23H482.6V336.1z M665.2,491.4H482.6v-23h182.6V491.4z M710,425.3H482.6v-23H710
			V425.3z M710,293H482.6v-23H710V293z"/>
	</g>
</g>
</svg>
